<svg width="24" height="24" viewBox="0 0 24 24" fill="none" xmlns="http://www.w3.org/2000/svg">
<path fill-rule="evenodd" clip-rule="evenodd" d="M22.75 7C22.75 3.82436 20.1756 1.25 17 1.25C13.8243 1.25 11.25 3.82436 11.25 7C11.25 7.91847 11.4659 8.78866 11.8504 9.56061C11.859 9.5779 11.8623 9.5918 11.8634 9.6002C11.8639 9.60415 11.8638 9.60649 11.8638 9.60744L11.5662 10.7195C11.2878 11.7601 12.2398 12.7122 13.2805 12.4338L14.3925 12.1362C14.3911 12.1366 14.3916 12.1363 14.3925 12.1362C14.3935 12.1362 14.3958 12.1361 14.3998 12.1366C14.4082 12.1376 14.4221 12.141 14.4394 12.1496C15.2113 12.5341 16.0815 12.75 17 12.75C20.1756 12.75 22.75 10.1756 22.75 7ZM17 2.75C19.3472 2.75 21.25 4.65279 21.25 7C21.25 9.34721 19.3472 11.25 17 11.25C16.3188 11.25 15.677 11.0903 15.1081 10.8069C14.7889 10.6479 14.3977 10.5821 14.0058 10.6869L13.06 10.94L13.313 9.99416C13.4179 9.60224 13.352 9.2111 13.193 8.89186C12.9097 8.32298 12.75 7.68122 12.75 7C12.75 4.65279 14.6528 2.75 17 2.75Z" fill="#2B2727" fill-opacity="0.5"/>
<path fill-rule="evenodd" clip-rule="evenodd" d="M3.00745 6.40735C4.68752 4.72728 7.52266 4.855 8.69248 6.95112L9.34149 8.11405C10.1054 9.48287 9.77987 11.2099 8.66157 12.3419C8.64668 12.3623 8.56774 12.4772 8.55791 12.678C8.54536 12.9343 8.63639 13.5271 9.55482 14.4456C10.4729 15.3637 11.0656 15.4549 11.3221 15.4425C11.5231 15.4327 11.6381 15.3537 11.6585 15.3388C12.7905 14.2205 14.5176 13.895 15.8864 14.6589L17.0493 15.3079C19.1454 16.4777 19.2731 19.3129 17.5931 20.9929C16.6944 21.8916 15.4995 22.6901 14.0953 22.7433C12.0144 22.8222 8.55913 22.2848 5.13735 18.863C1.71556 15.4412 1.17818 11.986 1.25706 9.90513C1.3103 8.50093 2.10879 7.30601 3.00745 6.40735ZM7.38265 7.68212C6.78363 6.60877 5.17394 6.36218 4.06811 7.46801C3.29276 8.24336 2.7887 9.09917 2.75599 9.96195C2.6902 11.6972 3.11864 14.723 6.19801 17.8024C9.27737 20.8817 12.3031 21.3102 14.0385 21.2444C14.9013 21.2117 15.7571 20.7076 16.5324 19.9323C17.6382 18.8264 17.3916 17.2167 16.3183 16.6177L15.1554 15.9687C14.432 15.565 13.4158 15.7027 12.7025 16.416C12.6325 16.486 12.1864 16.9022 11.395 16.9407C10.5847 16.9801 9.604 16.6161 8.49416 15.5062C7.38395 14.396 7.02003 13.415 7.0597 12.6047C7.09846 11.8132 7.51468 11.3676 7.58432 11.2979C8.29764 10.5846 8.43539 9.56846 8.03166 8.84505L7.38265 7.68212Z" fill="#2B2727" fill-opacity="0.5"/>
</svg>
